<?xml version="1.0" encoding="UTF-8"?>
<svg width="18px" height="18px" viewBox="0 0 18 18" version="1.1" xmlns="http://www.w3.org/2000/svg" xmlns:xlink="http://www.w3.org/1999/xlink">
    <title>features/menu-icons/cli</title>
    <g id="Feature-Pages-Design" stroke="none" stroke-width="1" fill="none" fill-rule="evenodd">
        <g id="dbi-nav-feature-dropdown-menu-options" transform="translate(-205.000000, -456.000000)" fill="#0968FF" fill-rule="nonzero">
            <g id="features-jumbo-menu-v1" transform="translate(163.000000, 150.000000)">
                <g id="cli" transform="translate(30.000000, 294.000000)">
                    <g id="features/menu-icons/cli" transform="translate(13.000000, 13.000000)">
                        <path d="M13.7931034,-1 L2.20689655,-1 C0.435776492,-1 -1,0.435776492 -1,2.20689655 L-1,13.7931034 C-1,15.5642235 0.435776492,17 2.20689655,17 L13.7931034,17 C15.5642235,17 17,15.5642235 17,13.7931034 L17,2.20689655 C17,0.435776492 15.5642235,-1 13.7931034,-1 Z M2.20689655,1 L13.7931034,1 C14.459654,1 15,1.54034599 15,2.20689655 L15,13.7931034 C15,14.459654 14.459654,15 13.7931034,15 L2.20689655,15 C1.54034599,15 1,14.459654 1,13.7931034 L1,2.20689655 C1,1.54034599 1.54034599,1 2.20689655,1 Z" id="Rectangle"></path>
                        <path d="M3.67049896,5.95172492 C4.01153805,5.5727926 4.57652767,5.51528838 4.98430841,5.79927331 L5.08275784,5.87739551 L7.84137852,8.36015413 C8.25123171,8.729022 8.28050694,9.35213254 7.92920421,9.7573208 L7.84137852,9.84674242 L5.08275784,12.329501 C4.67224781,12.6989601 4.03995798,12.6656816 3.67049896,12.2551716 C3.32945986,11.8762393 3.33158166,11.3083348 3.65680332,10.9326176 L3.74482837,10.8429128 L5.677,9.103 L3.74482837,7.3639838 C3.36589604,7.02294471 3.30839183,6.45795509 3.59237676,6.05017435 L3.67049896,5.95172492 Z" id="Path"></path>
                    </g>
                </g>
            </g>
        </g>
    </g>
</svg>